<svg id="logosvg" xmlns="http://www.w3.org/2000/svg" width="250.251" height="110.606" viewBox="0 0 250.251 110.606">
  <path id="Tracé_1" data-name="Tracé 1" d="M85.46,20.686l-11.4,17.823L62.674,56.33,51.283,38.509,39.89,20.686H15.074l23.8,34.139,23.8,34.14,23.8-34.14,23.8-34.139Z" transform="translate(-15.043 -20.686)" fill="#215687"/>
  <path id="Tracé_2" data-name="Tracé 2" d="M262.689,156.952l11.393-13.563,11.392-13.562,11.391,13.562,11.394,13.563h24.816l-23.8-25.978L285.474,105l-23.8,25.978-23.8,25.978Z" transform="translate(-82.854 -46.346)" fill="#215687"/>
  <path id="Tracé_22" data-name="Tracé 22" d="M36.583,20.686H15.03V120.12L36.583,111Z" transform="translate(-15.03 -20.686)" fill="#215687"/>
  <path id="Tracé_23" data-name="Tracé 23" d="M120.907,164.784h21.552V130.727l-21.552,9.118Z" transform="translate(-47.254 -54.178)" fill="#215687"/>
  <path id="Tracé_24" data-name="Tracé 24" d="M142.459,20.686H120.907V88.965l21.552-9.118Z" transform="translate(-47.254 -20.686)" fill="#215687"/>
  <path id="Tracé_25" data-name="Tracé 25" d="M177.719,156.952h24.345V105l-24.345,10.3Z" transform="translate(-64.546 -46.346)" fill="#a51363"/>
  <path id="Tracé_26" data-name="Tracé 26" d="M202.064,20.686H177.719v51.56l24.345-10.3Z" transform="translate(-64.546 -20.686)" fill="#a51363"/>
  <path id="Tracé_27" data-name="Tracé 27" d="M343.789,45.566V136.09h21.552V36.45Z" transform="translate(-115.09 -25.484)" fill="#215687"/>
  <path id="Tracé_28" data-name="Tracé 28" d="M237.91,149.721h21.553V81.236L237.91,90.352Z" transform="translate(-82.865 -39.115)" fill="#215687"/>
  <path id="Tracé_29" data-name="Tracé 29" d="M259.463,20.688H237.91V54.537l21.553-9.117Z" transform="translate(-82.865 -20.687)" fill="#215687"/>
</svg>
